<?xml version="1.0" encoding="UTF-8"?>
<svg xmlns="http://www.w3.org/2000/svg" xmlns:xlink="http://www.w3.org/1999/xlink" width="102pt" height="18pt" viewBox="0 0 102 18" version="1.1">
<defs>
<linearGradient id="linear0" gradientUnits="userSpaceOnUse" x1="0" y1="87.89" x2="999" y2="87.89" gradientTransform="matrix(0.102102,0,0,0.102273,0,0.01125)">
<stop offset="0" style="stop-color:rgb(89.411765%,22.745098%,22.745098%);stop-opacity:1;"/>
<stop offset="1" style="stop-color:rgb(88.627451%,0.784314%,44.705882%);stop-opacity:1;"/>
</linearGradient>
<linearGradient id="linear1" gradientUnits="userSpaceOnUse" x1="0" y1="87.89" x2="999" y2="87.89" gradientTransform="matrix(0.102102,0,0,0.102273,0,0.01125)">
<stop offset="0" style="stop-color:rgb(89.411765%,22.745098%,22.745098%);stop-opacity:1;"/>
<stop offset="1" style="stop-color:rgb(88.627451%,0.784314%,44.705882%);stop-opacity:1;"/>
</linearGradient>
<linearGradient id="linear2" gradientUnits="userSpaceOnUse" x1="0" y1="87.89" x2="999" y2="87.89" gradientTransform="matrix(0.102102,0,0,0.102273,0,0.01125)">
<stop offset="0" style="stop-color:rgb(89.411765%,22.745098%,22.745098%);stop-opacity:1;"/>
<stop offset="1" style="stop-color:rgb(88.627451%,0.784314%,44.705882%);stop-opacity:1;"/>
</linearGradient>
<linearGradient id="linear3" gradientUnits="userSpaceOnUse" x1="0" y1="87.89" x2="999" y2="87.89" gradientTransform="matrix(0.102102,0,0,0.102273,0,0.01125)">
<stop offset="0" style="stop-color:rgb(89.411765%,22.745098%,22.745098%);stop-opacity:1;"/>
<stop offset="1" style="stop-color:rgb(88.627451%,0.784314%,44.705882%);stop-opacity:1;"/>
</linearGradient>
<linearGradient id="linear4" gradientUnits="userSpaceOnUse" x1="0" y1="87.89" x2="999" y2="87.89" gradientTransform="matrix(0.102102,0,0,0.102273,0,0.01125)">
<stop offset="0" style="stop-color:rgb(89.411765%,22.745098%,22.745098%);stop-opacity:1;"/>
<stop offset="1" style="stop-color:rgb(88.627451%,0.784314%,44.705882%);stop-opacity:1;"/>
</linearGradient>
<linearGradient id="linear5" gradientUnits="userSpaceOnUse" x1="0" y1="87.89" x2="999" y2="87.89" gradientTransform="matrix(0.102102,0,0,0.102273,0,0.01125)">
<stop offset="0" style="stop-color:rgb(89.411765%,22.745098%,22.745098%);stop-opacity:1;"/>
<stop offset="1" style="stop-color:rgb(88.627451%,0.784314%,44.705882%);stop-opacity:1;"/>
</linearGradient>
<linearGradient id="linear6" gradientUnits="userSpaceOnUse" x1="0" y1="87.89" x2="999" y2="87.89" gradientTransform="matrix(0.102102,0,0,0.102273,0,0.01125)">
<stop offset="0" style="stop-color:rgb(89.411765%,22.745098%,22.745098%);stop-opacity:1;"/>
<stop offset="1" style="stop-color:rgb(88.627451%,0.784314%,44.705882%);stop-opacity:1;"/>
</linearGradient>
<linearGradient id="linear7" gradientUnits="userSpaceOnUse" x1="0" y1="87.89" x2="999" y2="87.89" gradientTransform="matrix(0.102102,0,0,0.102273,0,0.01125)">
<stop offset="0" style="stop-color:rgb(89.411765%,22.745098%,22.745098%);stop-opacity:1;"/>
<stop offset="1" style="stop-color:rgb(88.627451%,0.784314%,44.705882%);stop-opacity:1;"/>
</linearGradient>
<linearGradient id="linear8" gradientUnits="userSpaceOnUse" x1="0" y1="87.89" x2="999" y2="87.89" gradientTransform="matrix(0.102102,0,0,0.102273,0,0.01125)">
<stop offset="0" style="stop-color:rgb(89.411765%,22.745098%,22.745098%);stop-opacity:1;"/>
<stop offset="1" style="stop-color:rgb(88.627451%,0.784314%,44.705882%);stop-opacity:1;"/>
</linearGradient>
</defs>
<g id="surface1">
<path style=" stroke:none;fill-rule:nonzero;fill:rgb(100%,100%,100%);fill-opacity:1;" d="M 17.777344 7.628906 C 16.480469 7.628906 15.503906 8.050781 14.847656 8.898438 C 14.191406 9.742188 13.863281 10.878906 13.863281 12.304688 L 13.863281 17.660156 L 11.230469 17.660156 L 11.230469 5.160156 L 13.859375 5.160156 L 13.859375 7.683594 C 14.269531 6.910156 14.863281 6.25 15.582031 5.753906 C 16.257812 5.269531 17.0625 5 17.890625 4.980469 L 17.914062 7.640625 Z M 17.777344 7.628906 "/>
<path style=" stroke:none;fill-rule:nonzero;fill:rgb(100%,100%,100%);fill-opacity:1;" d="M 32.625 12.5625 L 22.84375 12.5625 C 22.90625 13.472656 23.324219 14.203125 24.089844 14.761719 C 24.851562 15.316406 25.773438 15.609375 26.714844 15.59375 C 28.28125 15.59375 29.46875 15.101562 30.28125 14.113281 L 31.78125 15.761719 C 30.4375 17.15625 28.6875 17.851562 26.527344 17.851562 C 24.777344 17.851562 23.289062 17.269531 22.058594 16.101562 C 20.832031 14.933594 20.21875 13.367188 20.222656 11.402344 C 20.222656 9.4375 20.847656 7.875 22.097656 6.714844 C 23.289062 5.582031 24.875 4.957031 26.519531 4.976562 C 28.21875 4.976562 29.660156 5.488281 30.847656 6.511719 C 32.035156 7.535156 32.628906 8.945312 32.625 10.75 Z M 22.84375 10.496094 L 30 10.496094 C 30 9.445312 29.671875 8.640625 29.015625 8.074219 C 28.359375 7.511719 27.546875 7.230469 26.585938 7.230469 C 25.648438 7.222656 24.734375 7.53125 23.992188 8.109375 C 23.226562 8.699219 22.84375 9.492188 22.84375 10.496094 Z M 22.84375 10.496094 "/>
<path style=" stroke:none;fill-rule:nonzero;fill:rgb(100%,100%,100%);fill-opacity:1;" d="M 38.609375 10.894531 L 38.609375 17.660156 L 35.980469 17.660156 L 35.980469 5.160156 L 38.609375 5.160156 L 38.609375 7.441406 C 38.980469 6.679688 39.574219 6.050781 40.308594 5.636719 C 41.050781 5.203125 41.898438 4.972656 42.757812 4.980469 C 44.730469 4.980469 46.066406 5.792969 46.769531 7.421875 C 48.003906 5.792969 49.546875 4.980469 51.390625 4.980469 C 52.800781 4.980469 53.9375 5.410156 54.804688 6.269531 C 55.671875 7.132812 56.105469 8.375 56.105469 10.007812 L 56.105469 17.664062 L 53.480469 17.664062 L 53.480469 10.800781 C 53.480469 8.5 52.527344 7.347656 50.621094 7.347656 C 49.761719 7.335938 48.933594 7.640625 48.285156 8.203125 C 47.621094 8.777344 47.273438 9.609375 47.242188 10.707031 L 47.242188 17.660156 L 44.613281 17.660156 L 44.613281 10.800781 C 44.613281 9.609375 44.402344 8.738281 43.980469 8.183594 C 43.558594 7.625 42.894531 7.347656 41.984375 7.347656 C 41.109375 7.335938 40.261719 7.660156 39.617188 8.25 C 38.945312 8.855469 38.609375 9.734375 38.609375 10.894531 Z M 38.609375 10.894531 "/>
<path style=" stroke:none;fill-rule:nonzero;fill:rgb(100%,100%,100%);fill-opacity:1;" d="M 78.625 17.660156 L 75.996094 17.660156 L 75.996094 0.433594 L 78.625 0.433594 Z M 78.625 17.660156 "/>
<path style=" stroke:none;fill-rule:nonzero;fill:rgb(100%,100%,100%);fill-opacity:1;" d="M 85.519531 17.660156 L 82.890625 17.660156 L 82.890625 0.433594 L 85.519531 0.433594 Z M 85.519531 17.660156 "/>
<path style=" stroke:none;fill-rule:nonzero;fill:rgb(100%,100%,100%);fill-opacity:1;" d="M 7.597656 15.359375 C 6.753906 15.5625 6.550781 15.59375 5.988281 15.59375 C 5.425781 15.59375 4.980469 15.390625 4.667969 15.042969 C 4.355469 14.695312 4.199219 14.214844 4.199219 13.621094 L 4.199219 6.046875 L 7.480469 6.046875 L 7.480469 3.933594 L 4.199219 3.933594 L 4.199219 0.0117188 L 1.570312 0.714844 L 1.570312 3.933594 L 0 3.933594 L 0 6.046875 L 1.570312 6.046875 L 1.570312 13.546875 C 1.570312 14.859375 1.964844 15.90625 2.753906 16.683594 C 3.511719 17.445312 4.542969 17.863281 5.613281 17.84375 C 6.3125 17.84375 6.972656 17.785156 7.597656 17.460938 Z M 7.597656 15.359375 "/>
<path style=" stroke:none;fill-rule:nonzero;fill:rgb(100%,100%,100%);fill-opacity:1;" d="M 100.125 16.121094 C 98.871094 17.367188 97.308594 17.988281 95.433594 17.988281 C 93.554688 17.988281 91.992188 17.367188 90.742188 16.121094 C 89.488281 14.875 88.863281 13.351562 88.863281 11.550781 C 88.867188 9.75 89.492188 8.226562 90.742188 6.980469 C 91.992188 5.734375 93.554688 5.113281 95.433594 5.113281 C 97.308594 5.113281 98.871094 5.738281 100.125 6.980469 C 101.375 8.226562 102 9.75 102 11.550781 C 102 13.351562 101.375 14.875 100.125 16.121094 Z M 92.605469 14.5 C 93.351562 15.257812 94.292969 15.640625 95.433594 15.640625 C 96.574219 15.640625 97.515625 15.257812 98.261719 14.5 C 99 13.742188 99.375 12.757812 99.375 11.550781 C 99.375 10.34375 99.003906 9.359375 98.257812 8.601562 C 97.515625 7.84375 96.574219 7.464844 95.433594 7.460938 C 94.292969 7.460938 93.351562 7.84375 92.605469 8.601562 C 91.863281 9.363281 91.492188 10.34375 91.492188 11.550781 C 91.492188 12.757812 91.863281 13.738281 92.605469 14.5 Z M 92.605469 14.5 "/>
<path style=" stroke:none;fill-rule:nonzero;fill:rgb(100%,100%,100%);fill-opacity:1;" d="M 98.253906 11.550781 L 93.871094 9.015625 L 93.871094 14.085938 Z M 98.253906 11.550781 "/>
<path style=" stroke:none;fill-rule:nonzero;fill:rgb(100%,100%,100%);fill-opacity:1;" d="M 66.082031 4.832031 C 62.453125 4.832031 59.515625 7.777344 59.515625 11.410156 C 59.515625 15.042969 62.457031 17.988281 66.082031 17.988281 C 69.710938 17.988281 72.652344 15.042969 72.652344 11.410156 C 72.652344 7.777344 69.710938 4.832031 66.082031 4.832031 Z M 67.648438 13.945312 L 63.265625 11.410156 L 67.648438 8.875 Z M 67.648438 13.945312 "/>
<path style=" stroke:none;fill-rule:nonzero;fill:url(#linear0);" d="M 17.777344 7.628906 C 16.480469 7.628906 15.503906 8.050781 14.847656 8.898438 C 14.191406 9.742188 13.863281 10.878906 13.863281 12.304688 L 13.863281 17.660156 L 11.230469 17.660156 L 11.230469 5.160156 L 13.859375 5.160156 L 13.859375 7.683594 C 14.269531 6.910156 14.863281 6.25 15.582031 5.753906 C 16.257812 5.269531 17.0625 5 17.890625 4.980469 L 17.914062 7.640625 Z M 17.777344 7.628906 "/>
<path style=" stroke:none;fill-rule:nonzero;fill:url(#linear1);" d="M 32.625 12.5625 L 22.84375 12.5625 C 22.90625 13.472656 23.324219 14.203125 24.089844 14.761719 C 24.851562 15.316406 25.773438 15.609375 26.714844 15.59375 C 28.28125 15.59375 29.46875 15.101562 30.28125 14.113281 L 31.78125 15.761719 C 30.4375 17.15625 28.6875 17.851562 26.527344 17.851562 C 24.777344 17.851562 23.289062 17.269531 22.058594 16.101562 C 20.832031 14.933594 20.21875 13.367188 20.222656 11.402344 C 20.222656 9.4375 20.847656 7.875 22.097656 6.714844 C 23.289062 5.582031 24.875 4.957031 26.519531 4.976562 C 28.21875 4.976562 29.660156 5.488281 30.847656 6.511719 C 32.035156 7.535156 32.628906 8.945312 32.625 10.75 Z M 22.84375 10.496094 L 30 10.496094 C 30 9.445312 29.671875 8.640625 29.015625 8.074219 C 28.359375 7.511719 27.546875 7.230469 26.585938 7.230469 C 25.648438 7.222656 24.734375 7.53125 23.992188 8.109375 C 23.226562 8.699219 22.84375 9.492188 22.84375 10.496094 Z M 22.84375 10.496094 "/>
<path style=" stroke:none;fill-rule:nonzero;fill:url(#linear2);" d="M 38.609375 10.894531 L 38.609375 17.660156 L 35.980469 17.660156 L 35.980469 5.160156 L 38.609375 5.160156 L 38.609375 7.441406 C 38.980469 6.679688 39.574219 6.050781 40.308594 5.636719 C 41.050781 5.203125 41.898438 4.972656 42.757812 4.980469 C 44.730469 4.980469 46.066406 5.792969 46.769531 7.421875 C 48.003906 5.792969 49.546875 4.980469 51.390625 4.980469 C 52.800781 4.980469 53.9375 5.410156 54.804688 6.269531 C 55.671875 7.132812 56.105469 8.375 56.105469 10.007812 L 56.105469 17.664062 L 53.480469 17.664062 L 53.480469 10.800781 C 53.480469 8.5 52.527344 7.347656 50.621094 7.347656 C 49.761719 7.335938 48.933594 7.640625 48.285156 8.203125 C 47.621094 8.777344 47.273438 9.609375 47.242188 10.707031 L 47.242188 17.660156 L 44.613281 17.660156 L 44.613281 10.800781 C 44.613281 9.609375 44.402344 8.738281 43.980469 8.183594 C 43.558594 7.625 42.894531 7.347656 41.984375 7.347656 C 41.109375 7.335938 40.261719 7.660156 39.617188 8.25 C 38.945312 8.855469 38.609375 9.734375 38.609375 10.894531 Z M 38.609375 10.894531 "/>
<path style=" stroke:none;fill-rule:nonzero;fill:url(#linear3);" d="M 78.625 17.660156 L 75.996094 17.660156 L 75.996094 0.433594 L 78.625 0.433594 Z M 78.625 17.660156 "/>
<path style=" stroke:none;fill-rule:nonzero;fill:url(#linear4);" d="M 85.519531 17.660156 L 82.890625 17.660156 L 82.890625 0.433594 L 85.519531 0.433594 Z M 85.519531 17.660156 "/>
<path style=" stroke:none;fill-rule:nonzero;fill:url(#linear5);" d="M 7.597656 15.359375 C 6.753906 15.5625 6.550781 15.59375 5.988281 15.59375 C 5.425781 15.59375 4.980469 15.390625 4.667969 15.042969 C 4.355469 14.695312 4.199219 14.214844 4.199219 13.621094 L 4.199219 6.046875 L 7.480469 6.046875 L 7.480469 3.933594 L 4.199219 3.933594 L 4.199219 0.0117188 L 1.570312 0.714844 L 1.570312 3.933594 L 0 3.933594 L 0 6.046875 L 1.570312 6.046875 L 1.570312 13.546875 C 1.570312 14.859375 1.964844 15.90625 2.753906 16.683594 C 3.511719 17.445312 4.542969 17.863281 5.613281 17.84375 C 6.3125 17.84375 6.972656 17.785156 7.597656 17.460938 Z M 7.597656 15.359375 "/>
<path style=" stroke:none;fill-rule:nonzero;fill:url(#linear6);" d="M 100.125 16.121094 C 98.871094 17.367188 97.308594 17.988281 95.433594 17.988281 C 93.554688 17.988281 91.992188 17.367188 90.742188 16.121094 C 89.488281 14.875 88.863281 13.351562 88.863281 11.550781 C 88.867188 9.75 89.492188 8.226562 90.742188 6.980469 C 91.992188 5.734375 93.554688 5.113281 95.433594 5.113281 C 97.308594 5.113281 98.871094 5.738281 100.125 6.980469 C 101.375 8.226562 102 9.75 102 11.550781 C 102 13.351562 101.375 14.875 100.125 16.121094 Z M 92.605469 14.5 C 93.351562 15.257812 94.292969 15.640625 95.433594 15.640625 C 96.574219 15.640625 97.515625 15.257812 98.261719 14.5 C 99 13.742188 99.375 12.757812 99.375 11.550781 C 99.375 10.34375 99.003906 9.359375 98.257812 8.601562 C 97.515625 7.84375 96.574219 7.464844 95.433594 7.460938 C 94.292969 7.460938 93.351562 7.84375 92.605469 8.601562 C 91.863281 9.363281 91.492188 10.34375 91.492188 11.550781 C 91.492188 12.757812 91.863281 13.738281 92.605469 14.5 Z M 92.605469 14.5 "/>
<path style=" stroke:none;fill-rule:nonzero;fill:url(#linear7);" d="M 98.253906 11.550781 L 93.871094 9.015625 L 93.871094 14.085938 Z M 98.253906 11.550781 "/>
<path style=" stroke:none;fill-rule:nonzero;fill:url(#linear8);" d="M 66.082031 4.832031 C 62.453125 4.832031 59.515625 7.777344 59.515625 11.410156 C 59.515625 15.042969 62.457031 17.988281 66.082031 17.988281 C 69.710938 17.988281 72.652344 15.042969 72.652344 11.410156 C 72.652344 7.777344 69.710938 4.832031 66.082031 4.832031 Z M 67.648438 13.945312 L 63.265625 11.410156 L 67.648438 8.875 Z M 67.648438 13.945312 "/>
</g>
</svg>
