<svg xmlns="http://www.w3.org/2000/svg" xmlns:xlink="http://www.w3.org/1999/xlink" viewBox="0 0 999 175.78"><defs><style>.cls-1{fill:#fff;}.cls-2{fill:url(#New_Gradient_Swatch);}</style><linearGradient id="New_Gradient_Swatch" y1="87.89" x2="999" y2="87.89" gradientUnits="userSpaceOnUse"><stop offset="0" stop-color="#e43a3a"/><stop offset="1" stop-color="#e20272"/></linearGradient></defs><title>Wor mark - SVG</title><g id="Layer_2" data-name="Layer 2"><g id="Layer_1-2" data-name="Layer 1"><path class="cls-1" d="M174.13,74.49q-19.06,0-28.71,12.4t-9.65,33.31v52.38H110V50.36h25.73V75a53.21,53.21,0,0,1,16.89-18.84,40.64,40.64,0,0,1,22.62-7.58l.23,26Z"/><path class="cls-1" d="M319.55,122.73h-95.8q.92,13.32,12.18,21.48a42.7,42.7,0,0,0,25.73,8.15q23,0,34.92-14.47L311.28,154q-19.75,20.46-51.46,20.45-25.73,0-43.76-17.12t-18-45.94q0-28.83,18.38-45.83a61.66,61.66,0,0,1,43.31-17q24.92,0,42.38,15T319.55,105Zm-95.8-20.22h70.07q0-15.39-9.65-23.66T260.4,70.58A40.67,40.67,0,0,0,235,79.2Q223.75,87.81,223.75,102.51Z"/><path class="cls-1" d="M378.13,106.42v66.16H352.4V50.36h25.73V72.65A40.84,40.84,0,0,1,394.79,55a47.14,47.14,0,0,1,24-6.43q28.95,0,39.29,23.89,18.14-23.89,45.25-23.89,20.69,0,33.43,12.63t12.75,36.53v74.89H523.78V105.5q0-33.77-28-33.77a34,34,0,0,0-22.86,8.38q-9.76,8.4-10.22,24.47v68H436.94V105.5q0-17.46-6.2-25.61t-19.53-8.16A33.68,33.68,0,0,0,388,80.57Q378.13,89.42,378.13,106.42Z"/><path class="cls-1" d="M770.05,172.58H744.32V4.12h25.73Z"/><path class="cls-1" d="M837.58,172.58H811.85V4.12h25.73Z"/><path class="cls-1" d="M74.43,150.07c-8.27,2-10.26,2.3-15.77,2.3s-9.88-2-12.94-5.4-4.6-8.08-4.6-13.9V59H73.28V38.36H41.12V0h0L15.39,6.89V38.36H0V59H15.39v73.34q0,19.29,11.6,30.67a38.58,38.58,0,0,0,28,11.37c6.84,0,13.31-.59,19.41-3.76Z"/><path class="cls-1" d="M980.62,157.51q-18.37,18.27-45.94,18.27t-45.95-18.27q-18.39-18.25-18.38-44.68t18.38-44.68q18.38-18.27,45.95-18.26t45.94,18.26Q999,86.42,999,112.83T980.62,157.51ZM907,141.66q10.92,11.15,27.69,11.15t27.68-11.15q10.9-11.13,10.91-28.83T962.36,84q-10.92-11.13-27.68-11.14T907,84q-10.9,11.15-10.91,28.83T907,141.66Z"/><polygon class="cls-1" points="962.3 112.83 919.37 88.05 919.37 137.62 962.3 112.83"/><path class="cls-1" d="M647.22,47.13a64.33,64.33,0,1,0,64.33,64.32A64.32,64.32,0,0,0,647.22,47.13Zm15.34,89.11-42.93-24.79,42.93-24.78Z"/><path class="cls-2" d="M174.13,74.49q-19.06,0-28.71,12.4t-9.65,33.31v52.38H110V50.36h25.73V75a53.21,53.21,0,0,1,16.89-18.84,40.64,40.64,0,0,1,22.62-7.58l.23,26Z"/><path class="cls-2" d="M319.55,122.73h-95.8q.92,13.32,12.18,21.48a42.7,42.7,0,0,0,25.73,8.15q23,0,34.92-14.47L311.28,154q-19.75,20.46-51.46,20.45-25.73,0-43.76-17.12t-18-45.94q0-28.83,18.38-45.83a61.66,61.66,0,0,1,43.31-17q24.92,0,42.38,15T319.55,105Zm-95.8-20.22h70.07q0-15.39-9.65-23.66T260.4,70.58A40.67,40.67,0,0,0,235,79.2Q223.75,87.81,223.75,102.51Z"/><path class="cls-2" d="M378.13,106.42v66.16H352.4V50.36h25.73V72.65A40.84,40.84,0,0,1,394.79,55a47.14,47.14,0,0,1,24-6.43q28.95,0,39.29,23.89,18.14-23.89,45.25-23.89,20.69,0,33.43,12.63t12.75,36.53v74.89H523.78V105.5q0-33.77-28-33.77a34,34,0,0,0-22.86,8.38q-9.76,8.4-10.22,24.47v68H436.94V105.5q0-17.46-6.2-25.61t-19.53-8.16A33.68,33.68,0,0,0,388,80.57Q378.13,89.42,378.13,106.42Z"/><path class="cls-2" d="M770.05,172.58H744.32V4.12h25.73Z"/><path class="cls-2" d="M837.58,172.58H811.85V4.12h25.73Z"/><path class="cls-2" d="M74.43,150.07c-8.27,2-10.26,2.3-15.77,2.3s-9.88-2-12.94-5.4-4.6-8.08-4.6-13.9V59H73.28V38.36H41.12V0h0L15.39,6.89V38.36H0V59H15.39v73.34q0,19.29,11.6,30.67a38.58,38.58,0,0,0,28,11.37c6.84,0,13.31-.59,19.41-3.76Z"/><path class="cls-2" d="M980.62,157.51q-18.37,18.27-45.94,18.27t-45.95-18.27q-18.39-18.25-18.38-44.68t18.38-44.68q18.38-18.27,45.95-18.26t45.94,18.26Q999,86.42,999,112.83T980.62,157.51ZM907,141.66q10.92,11.15,27.69,11.15t27.68-11.15q10.9-11.13,10.91-28.83T962.36,84q-10.92-11.13-27.68-11.14T907,84q-10.9,11.15-10.91,28.83T907,141.66Z"/><polygon class="cls-2" points="962.3 112.83 919.37 88.05 919.37 137.62 962.3 112.83"/><path class="cls-2" d="M647.22,47.13a64.33,64.33,0,1,0,64.33,64.32A64.32,64.32,0,0,0,647.22,47.13Zm15.34,89.11-42.93-24.79,42.93-24.78Z"/></g></g></svg>